HIERARCHY
ROOT pelvis
{
  OFFSET 0 100 0
  CHANNELS 6 Xposition Yposition Zposition Zrotation Xrotation Yrotation
  JOINT pelvis_right_femur
  {
    OFFSET -10.78128 -3.44521 -0.5502486
    CHANNELS 3 Zrotation Xrotation Yrotation
    JOINT right_femur_tibia
    {
      OFFSET -0.8047443 -44.0398 -0.1307829
      CHANNELS 3 Zrotation Xrotation Yrotation
      JOINT right_tibia_foot
      {
        OFFSET 3.006224 -47.83518 -5
        CHANNELS 3 Zrotation Xrotation Yrotation
        End Site
        {
          OFFSET 0 -5 15
        }
      }
    }
  }
  JOINT pelvis_left_femur
  {
    OFFSET 10.78128 -3.44521 -0.5502486
    CHANNELS 3 Zrotation Xrotation Yrotation
    JOINT left_femur_tibia
    {
      OFFSET 0.8047443 -44.0398 -0.1307829
      CHANNELS 3 Zrotation Xrotation Yrotation
      JOINT left_tibia_foot
      {
        OFFSET -4.370144 -48.10324 -4.275266
        CHANNELS 3 Zrotation Xrotation Yrotation
        End Site
        {
          OFFSET 0 -5 15
        }
      }
    }
  }
  JOINT pelvis_spine1
  {
    OFFSET 0 6.468898 -3.129235
    CHANNELS 3 Zrotation Xrotation Yrotation
    JOINT spine1
    {
      OFFSET 0 23.15396 4.99043
      CHANNELS 3 Zrotation Xrotation Yrotation
      JOINT spine2
      {
        OFFSET 0 20.79997 -5.064912
        CHANNELS 3 Zrotation Xrotation Yrotation
        JOINT neck
        {
          OFFSET 0 14.38658 9.616178
          CHANNELS 3 Zrotation Xrotation Yrotation
          End Site
          {
            OFFSET 0 20 0
          }
        }
      }
      JOINT right_manubrium
      {
        OFFSET -5.722621 16.35077 3.967754
        CHANNELS 3 Zrotation Xrotation Yrotation
        JOINT right_clavicle
        {
          OFFSET -13.16364 1.694482 -4.693211
          CHANNELS 3 Zrotation Xrotation Yrotation
          JOINT right_humerus
          {
            OFFSET -28.5034 -0.3100689 -2.792744
            CHANNELS 3 Zrotation Xrotation Yrotation
            JOINT right_radius
            {
              OFFSET -25.15693 0.02248979 -1.271978
              CHANNELS 3 Zrotation Xrotation Yrotation
              End Site
              {
                OFFSET -15 0 0
              }
            }
          }
        }
      }
      JOINT left_manubrium
      {
        OFFSET 5.722621 16.35077 3.967754
        CHANNELS 3 Zrotation Xrotation Yrotation
        JOINT left_clavicle
        {
          OFFSET 13.16364 1.694482 -4.693211
          CHANNELS 3 Zrotation Xrotation Yrotation
          JOINT left_humerus
          {
            OFFSET 29.39168 -1.063119 -2.237045
            CHANNELS 3 Zrotation Xrotation Yrotation
            JOINT left_radius
            {
              OFFSET 24.59957 -0.9528479 0.9047498
              CHANNELS 3 Zrotation Xrotation Yrotation
              End Site
              {
                OFFSET 15 -0 -0
              }
            }
          }
        }
      }
    }
  }
}
MOTION
Frames: 17
Frame Time: 0.0416666666667
-796.4565 102.8402 2542.864 -4.223828 0.2294856 -63.76478 8.511597 -14.0056 0.2788617 -0 15.04833 -0 -15.21492 -2.284062 -1.608103 -2.201718 3.979664 -8.332923 -0 47.0665 -0 1.289798 -5.300317 12.66732 -2.061204 -0.0264086 3.507778 1.643711 9.570745 -5.126374 1.904641 21.73013 7.619754 3.402607 -20.70526 9.863638 5.959597 -14.69271 12.19857 81.60239 41.27522 -8.902252 -0 0 9.067239 -18.51122 18.4177 12.64409 6.177681 -18.7609 -0.6431516 -87.08635 11.04932 13.12013 0 0 -12.77254 19.41264 14.40047 -11.11422
-801.1064 103.9328 2545.076 -4.77425 -0.1645982 -64.2955 8.35482 -9.401947 0.3195003 -0 14.30988 -0 -15.3513 -4.853524 -1.620048 -1.506354 -1.096065 -7.582751 -0 49.01366 -0 0.8257742 -3.591158 12.92849 -2.131524 -0.0371907 3.836588 1.53552 9.683876 -5.028945 1.760964 21.73348 7.517101 3.543217 -20.65068 9.410324 5.928988 -15.23094 12.2298 81.05332 40.4447 -8.289372 -0 0 10.03459 -18.75408 17.43981 12.85988 6.051653 -18.62772 -0.8219296 -87.58649 11.49633 14.16606 0 0 -11.85171 18.44467 13.98346 -9.975481
-805.4697 104.7351 2547.16 -5.439073 -0.6867433 -64.93382 8.131037 -4.98346 0.1643755 -0 12.64057 -0 -15.26936 -7.35683 -1.59868 -0.7012016 -6.082525 -6.636114 -0 48.1943 -0 0.9122273 -2.658448 13.69403 -2.203433 -0.03924748 4.194841 1.389349 9.799272 -4.87669 1.62304 21.76437 7.396111 3.694085 -20.51801 8.924367 5.895976 -15.806 12.2597 80.41068 39.55228 -7.509173 -0 0 11.12 -19.10008 16.45606 13.12453 5.915511 -18.44297 -1.01593 -88.17652 11.92653 15.33873 0 0 -10.70118 17.44311 13.58956 -8.810867
-809.6241 105.1107 2549.179 -6.146072 -1.206595 -65.66403 7.924223 -0.917858 -0.1017663 -0 10.7388 -0 -15.03778 -9.722253 -1.634702 0.1964044 -10.49417 -5.571789 -0 44.72132 -0 1.630662 -2.247799 14.75267 -2.271412 -0.03627785 4.564367 1.215447 9.913013 -4.681817 1.497568 21.81621 7.26608 3.846559 -20.32739 8.437662 5.859448 -16.39335 12.28763 79.72931 38.64036 -6.626819 -0 0 12.26742 -19.51757 15.51794 13.4133 5.778891 -18.22146 -1.212449 -88.82642 12.30911 16.57957 0 0 -9.399323 16.46963 13.23435 -7.690205
-813.6716 105.0186 2551.213 -6.73026 -1.599585 -66.44169 7.701247 2.790245 -0.3878467 -0 9.155458 -0 -14.70511 -11.95843 -1.741974 1.108914 -14.13393 -4.567427 -0 39.09362 -0 2.727243 -2.094969 15.84936 -2.331322 -0.03311927 4.927302 1.027183 10.02202 -4.462035 1.388058 21.87995 7.137472 3.993832 -20.10598 7.978388 5.820034 -16.96989 12.31334 79.06173 37.75082 -5.715817 -0 0 13.41892 -19.96638 14.66297 13.69879 5.651672 -17.98323 -1.400342 -89.50136 12.62368 17.82697 0 0 -8.037284 15.57752 12.92822 -6.67279
-817.7174 104.493 2553.332 -7.050153 -1.81622 -67.21259 7.367067 6.193935 -0.5961287 -0 8.226722 -0 -14.27321 -14.03476 -1.895487 1.899422 -16.91224 -3.840645 -0 32.08604 -0 3.802846 -2.042888 16.80633 -2.381121 -0.03440836 5.269533 0.8372902 10.1245 -4.235271 1.294793 21.94687 7.01961 4.132465 -19.87915 7.565541 5.780628 -17.51758 12.33708 78.44502 36.91854 -4.838602 -0 0 14.52708 -20.40951 13.91175 13.95769 5.542202 -17.74827 -1.572304 -90.17011 12.86092 19.02905 0 0 -6.694588 14.80452 12.67676 -5.800538
-821.8551 103.6268 2555.583 -7.087644 -1.900096 -67.9356 6.841077 9.311521 -0.6470386 -0 8.206693 -0 -13.75218 -15.76395 -2.060483 2.399792 -18.70679 -3.581259 -0 24.69138 -0 4.550833 -2.034796 17.57636 -2.420534 -0.04359176 5.58067 0.6561481 10.21947 -4.016806 1.216201 22.01023 6.919704 4.261781 -19.6657 7.209463 5.745895 -18.02229 12.35933 77.89955 36.17113 -4.040322 -0 0 15.55603 -20.8187 13.27343 14.17325 5.456827 -17.53362 -1.724646 -90.80701 13.01919 20.14483 0 0 -5.431375 14.17452 12.48288 -5.100592
-826.1554 102.5617 2557.982 -6.958871 -1.952246 -68.59361 6.108214 12.08853 -0.5266816 -0 9.330889 -0 -13.23517 -16.77504 -2.183842 2.466843 -19.38179 -3.891776 -0 17.9915 -0 4.884249 -2.064751 18.22078 -2.450393 -0.06234111 5.852248 0.4919339 10.30571 -3.818876 1.150425 22.06561 6.842902 4.382216 -19.47748 6.915285 5.721239 -18.47062 12.38033 77.43443 35.53166 -3.351888 -0 0 16.4759 -21.17404 12.75246 14.33473 5.400044 -17.35262 -1.855692 -91.38944 13.1017 21.13859 0 0 -4.293025 13.70187 12.34828 -4.589968
-830.6562 101.4747 2560.52 -6.846158 -2.076373 -69.1897 5.226233 14.40979 -0.3120888 -0 11.75245 -0 -12.91278 -16.61836 -2.184144 2.041095 -18.8771 -4.755479 -0 12.91565 -0 4.919056 -2.149557 18.84631 -2.472142 -0.09038869 6.07657 0.3512297 10.38102 -3.651004 1.096234 22.11058 6.792709 4.49394 -19.3212 6.686023 5.711836 -18.84825 12.39979 77.05253 35.02066 -2.794072 -0 0 17.25894 -21.46176 12.35215 14.4363 5.374601 -17.21453 -1.96409 -91.89608 13.11559 21.97638 0 0 -3.316066 13.3939 12.27321 -4.277527
-835.3559 100.5547 2563.164 -6.895232 -2.334775 -69.73533 4.286007 16.13741 -0.1364473 -0 15.4419 -0 -12.992 -14.96556 -1.957606 1.164288 -17.276 -6.058837 -0 9.987283 -0 4.841695 -2.334799 19.53773 -2.487516 -0.1258036 6.246862 0.2393333 10.44203 -3.520078 1.053289 22.14403 6.771409 4.596174 -19.20073 6.52433 5.721934 -19.14079 12.41689 76.75316 34.65617 -2.379385 -0 0 17.87975 -21.67221 12.0753 14.47618 5.381459 -17.1241 -2.047645 -92.30763 13.07142 22.62738 0 0 -2.53031 13.25182 12.25567 -4.164106
-840.2103 99.97006 2565.865 -7.14002 -2.731433 -70.23799 3.355607 17.14586 -0.1207401 -0 20.13872 -0 -13.58859 -11.77284 -1.390926 -0.0530704 -14.81618 -7.651919 -0 9.214498 -0 4.761959 -2.709339 20.31656 -2.498201 -0.1655374 6.357835 0.160308 10.48455 -3.430305 1.022109 22.16564 6.780348 4.686939 -19.11893 6.433355 5.754333 -19.33553 12.43039 76.53367 34.4532 -2.112916 -0 0 18.3171 -21.7987 11.92415 14.45605 5.419827 -17.08145 -2.102798 -92.6085 12.98179 23.06701 0 0 -1.958832 13.27169 12.29118 -4.243266
-845.1364 99.83326 2568.563 -7.498027 -3.222059 -70.6932 2.45549 17.33779 -0.3301517 -0 25.37596 -0 -14.68915 -7.310278 -0.387686 -1.476873 -11.84653 -9.394036 -0 10.17277 -0 4.662138 -3.395643 21.13655 -2.505418 -0.2059502 6.405765 0.1170348 10.50407 -3.383388 1.004075 22.17542 6.820001 4.762877 -19.0785 6.417205 5.809841 -19.42246 12.43892 76.39149 34.4234 -1.993899 -0 0 18.55448 -21.83698 11.90125 14.38029 5.487329 -17.08281 -2.124722 -92.7873 12.85917 23.27806 0 0 -1.618753 13.44632 12.37376 -4.503386
-850.0265 100.1733 2571.199 -7.827162 -3.73695 -71.08349 1.580487 16.64948 -0.7749926 -0 30.54742 -0 -16.18653 -2.090349 1.084233 -2.97201 -8.752884 -11.15638 -0 12.18407 -0 4.461792 -4.504107 21.90555 -2.509488 -0.2431978 6.388079 0.1113387 10.49646 -3.379048 1.001456 22.17365 6.889744 4.819038 -19.08212 6.480932 5.886596 -19.39448 12.44107 76.32683 34.5747 -2.018301 -0 0 18.57886 -21.78528 12.01056 14.25552 5.580144 -17.12198 -2.107992 -92.8358 12.71379 23.24958 0 0 -1.523452 13.76683 12.49732 -4.929829
-854.7714 100.9258 2573.722 -8.005566 -4.203628 -71.38628 0.7435864 15.0658 -1.430981 -0 34.9965 -0 -17.92314 3.23595 2.939701 -4.402949 -5.871978 -12.80062 -0 14.4954 -0 4.131532 -6.065173 22.52219 -2.509495 -0.2736132 6.30316 0.1440302 10.45892 -3.415677 1.017223 22.16074 6.98731 4.848932 -19.13192 6.629547 5.979473 -19.2478 12.43563 76.34493 34.9098 -2.181475 -0 0 18.38015 -21.64498 12.25761 14.0902 5.692996 -17.19208 -2.047871 -92.74797 12.5523 22.97616 0 0 -1.684245 14.22304 12.65656 -5.505709
-859.2871 101.9471 2576.1 -7.996989 -4.565559 -71.58812 0.004573991 12.64707 -2.251709 -0 38.13487 -0 -19.70957 8.008407 4.951587 -5.635144 -3.406412 -14.17177 -0 16.44738 -0 3.772456 -7.977357 22.9239 -2.503237 -0.2942776 6.151008 0.2146753 10.39118 -3.490861 1.054387 22.13712 7.10813 4.8453 -19.22843 6.865671 6.080018 -18.98356 12.42198 76.45662 35.42291 -2.479726 -0 0 17.95364 -21.42143 12.64748 13.89408 5.819141 -17.28718 -1.942154 -92.52087 12.37718 22.45994 0 0 -2.108982 14.80198 12.84695 -6.210848
-863.5317 103.0531 2578.317 -7.864684 -4.794866 -71.69733 -0.5422916 9.54359 -3.168659 -0 39.57866 -0 -21.34392 11.71814 6.797327 -6.555952 -1.375403 -15.13156 -0 17.63208 -0 3.597986 -10.02311 23.12824 -2.487667 -0.3037813 5.934806 0.3211144 10.29651 -3.601624 1.114832 22.10318 7.244983 4.801878 -19.36951 7.186216 6.177448 -18.61051 12.40052 76.67591 36.09536 -2.91011 -0 0 17.30568 -21.12451 13.17996 13.67726 5.950687 -17.40347 -1.793111 -92.15776 12.18756 21.71552 0 0 -2.796704 15.48528 13.06376 -7.019559
-867.5065 104.0674 2580.373 -7.714185 -4.8923 -71.74569 -0.8184897 5.970523 -4.09157 -0 39.2435 -0 -22.65744 14.13808 8.185045 -7.111541 0.3533125 -15.62261 -0 17.96927 -0 3.810471 -11.96703 23.22819 -2.459923 -0.3028904 5.662772 0.4590015 10.18209 -3.744376 1.197901 22.05923 7.38854 4.71585 -19.54985 7.579453 6.260823 -18.1474 12.37289 77.01462 36.89251 -3.468325 -0 0 16.46052 -20.76799 13.84306 13.44859 6.079507 -17.53934 -1.608601 -91.67244 11.98158 20.77558 0 0 -3.730214 16.24655 13.30027 -7.898578
